<?xml version="1.0" encoding="UTF-8" standalone="no"?>
<svg
   xmlns:dc="http://purl.org/dc/elements/1.1/"
   xmlns:cc="http://creativecommons.org/ns#"
   xmlns:rdf="http://www.w3.org/1999/02/22-rdf-syntax-ns#"
   xmlns:svg="http://www.w3.org/2000/svg"
   xmlns="http://www.w3.org/2000/svg"
   xmlns:sodipodi="http://sodipodi.sourceforge.net/DTD/sodipodi-0.dtd"
   xmlns:inkscape="http://www.inkscape.org/namespaces/inkscape"
   version="1.1"
   id="svg2"
   xml:space="preserve"
   width="2448.0405"
   height="577.93945"
   viewBox="0 0 2448.0405 577.93946"
   sodipodi:docname="logo-white.svg"
   inkscape:version="1.0.2 (e86c8708, 2021-01-15)"><metadata
     id="metadata8"><rdf:RDF><cc:Work
         rdf:about=""><dc:format>image/svg+xml</dc:format><dc:type
           rdf:resource="http://purl.org/dc/dcmitype/StillImage" /></cc:Work></rdf:RDF></metadata><defs
     id="defs6"><clipPath
       clipPathUnits="userSpaceOnUse"
       id="clipPath20"><path
         d="M 0,516.779 H 1920 V 0 H 0 Z"
         id="path18" /></clipPath></defs><sodipodi:namedview
     pagecolor="#ffffff"
     bordercolor="#666666"
     borderopacity="1"
     objecttolerance="10"
     gridtolerance="10"
     guidetolerance="10"
     inkscape:pageopacity="0"
     inkscape:pageshadow="2"
     inkscape:window-width="1306"
     inkscape:window-height="823"
     id="namedview4"
     inkscape:document-rotation="0"
     showgrid="false"
     inkscape:zoom="0.49570313"
     inkscape:cx="1026.3208"
     inkscape:cy="268.66876"
     inkscape:window-x="0"
     inkscape:window-y="25"
     inkscape:window-maximized="0"
     inkscape:current-layer="g10" /><g
     id="g10"
     inkscape:groupmode="layer"
     inkscape:label="continuum_collective_primary_logo_rgb_white"
     transform="matrix(1.3333333,0,0,-1.3333333,-55.980265,633.36145)"><path
       d="m 682.992,42.46 h 0.196 v 323.897 h -0.196 z"
       style="fill:#ffffff;fill-opacity:1;fill-rule:nonzero;stroke:none"
       id="path12" /><g
       id="g14"><g
         id="g16"
         clip-path="url(#clipPath20)"><g
           id="g22"
           transform="translate(476.5108,366.3572)"><path
             d="m 0,0 v -323.897 h 0.196 c 0,107.938 0,215.501 0,323.897 z"
             style="fill:#ffffff;fill-opacity:1;fill-rule:nonzero;stroke:none"
             id="path24" /></g><g
           id="g26"
           transform="translate(248.6612,474.7938)"><path
             d="m 0,0 h -97.463 v -37.215 h -11.174 V 0 h -98.039 v -60.412 c 12.446,-12.235 24.814,-24.394 37.833,-37.193 H -38.127 C -25.338,-84.881 -12.77,-72.374 0,-59.669 Z m 0.298,-394.983 c -14.761,-14.761 -23.194,-23.194 -37.955,-37.955 h -130.906 l -37.835,37.192 v 249.888 l 37.522,37.204 H -38.3 l 38.579,-37.697 v -119.007 h -97.742 v 90.699 c 0,3.085 -2.501,5.587 -5.587,5.587 -3.086,0 -5.587,-2.502 -5.587,-5.587 v -192.422 c 0,-3.085 2.501,-5.586 5.587,-5.586 3.086,0 5.587,2.501 5.587,5.586 v 90.839 H 0.298 Z"
             style="fill:#ffffff;fill-opacity:1;fill-rule:nonzero;stroke:none"
             id="path28" /></g><g
           id="g30"
           transform="translate(259.835,102.0545)"><path
             d="m 0,0 c 12.43,12.12 24.85,24.228 38.13,37.175 h 64.956 64.957 c 13.2,-12.871 25.551,-24.912 37.908,-36.96 v -60.703 h -97.278 v 37.74 h -6.061 -5.007 v -37.74 H 0 C 0,-32.685 0,-27.824 0,0 m 108.673,108.42 h -6.06 -5.008 v 204.397 h 5.008 6.06 z m 97.5,-22.87 v 250.013 c -12.431,12.121 -24.851,24.229 -38.13,37.176 H 103.086 38.131 C 24.85,359.792 12.43,347.684 0,335.564 V 85.55 C 12.539,73.119 24.853,60.911 37.457,48.412 h 65.629 65.629 c 12.606,12.499 24.919,24.706 37.458,37.138"
             style="fill:#ffffff;fill-opacity:1;fill-rule:nonzero;stroke:none"
             id="path32" /></g><g
           id="g34"
           transform="translate(1008.5211,366.3572)"><path
             d="M 0,0 H -97.605 V -324.187 H 0 Z m 0,10.994 h -97.605 v 97.442 H 0 Z"
             style="fill:#ffffff;fill-opacity:1;fill-rule:nonzero;stroke:none"
             id="path36" /></g><g
           id="g38"
           transform="translate(1345.0543,102.6111)"><path
             d="m 0,0 h -10.883 v 37.172 h -97.739 v -60.079 c 12.487,-12.469 24.762,-24.726 37.299,-37.244 H 59.203 c 13.703,13.307 26.297,25.535 38.536,37.42 V 37.274 H 0 Z M 0,372.41 H 97.739 V 85.566 C 85.5,73.682 72.907,61.453 59.203,48.146 H -71.323 c -12.537,12.519 -24.812,24.775 -37.299,37.245 v 286.918 c 15.134,0 82.023,-0.001 97.739,-0.001 V 108.297 H 0 Z"
             style="fill:#ffffff;fill-opacity:1;fill-rule:nonzero;stroke:none"
             id="path40" /></g><g
           id="g42"
           transform="translate(1562.3541,437.7269)"><path
             d="m 0,0 -10.88,0.042 c 0,0 -0.004,20.525 -0.004,36.934 h -97.737 v -59.851 c 12.487,-12.469 24.762,-24.726 37.299,-37.244 H 59.204 c 13.704,13.307 26.297,25.536 38.536,37.42 V 37.078 H 0.003 C 0.003,20.389 0,0 0,0 M 0.001,-71.002 H 97.74 c 0,-95.691 0,-191.063 0,-286.844 -12.239,-11.885 -24.832,-24.114 -38.536,-37.421 H -71.322 c -12.537,12.519 -24.812,24.776 -37.299,37.245 v 286.918 h 97.739 V -335.115 H 0.001 Z"
             style="fill:#ffffff;fill-opacity:1;fill-rule:nonzero;stroke:none"
             id="path44" /></g><g
           id="g46"
           transform="translate(1768.9596,139.1263)"><path
             d="m 0,0 h -58.106 -39.49 V -97.141 H 0 Z M 109.055,0 H 69.607 10.758 v -97.141 h 98.297 z m 10e-4,335.667 C 109.055,227.271 109.055,119.71 109.055,11.77 h -39.14 -37.53 l 35.427,159.409 -9.44,0.144 L 22.466,11.836 22.364,11.77 H 5.751 -9.949 l -35.398,159.414 -10.83,-0.005 35.294,-159.409 h -37.53 -39.182 V 335.667 H -58.105 0 V 171.251 h 10.759 v 164.416 h 58.849 z"
             style="fill:#ffffff;fill-opacity:1;fill-rule:nonzero;stroke:none"
             id="path48" /></g><g
           id="g50"
           transform="translate(1225.6818,139.8846)"><path
             d="m 0,0 h -91.263 v -37.226 l 18.894,-60.673 H 0 Z M -103.19,-37.216 V 0 H -206.285 V -97.899 H -84.446 Z M 0,334.909 V 10.526 h -46.087 l -45.061,0.066 -51.107,159.833 h -11.918 l 51.03,-159.899 h -57.36 -45.782 v 324.383 h 103.095 v -37.215 l 39.31,-127.268 12.245,-10e-4 -39.627,127.258 v 37.226 z"
             style="fill:#ffffff;fill-opacity:1;fill-rule:nonzero;stroke:none"
             id="path52" /></g><g
           id="g54"
           transform="translate(560.773,474.7933)"><path
             d="m 0,0 31.07,-97.169 45.062,-0.067 h 46.087 V 0 Z m -84.066,-97.236 h 45.781 57.362 L -11.956,0 h -72.11 z m 206.285,-11.368 V -432.987 H 76.132 l -45.062,0.067 -51.107,159.833 h -11.917 l 51.031,-159.9 h -57.362 -45.781 c 0,107.938 0,215.987 0,324.383 H 19.028 v -37.215 L 58.339,-273.087 H 70.584 L 30.957,-145.83 v 37.226 z"
             style="fill:#ffffff;fill-opacity:1;fill-rule:nonzero;stroke:none"
             id="path56" /></g><g
           id="g58"
           transform="translate(900.0406,474.7933)"><path
             d="m 0,0 v -13.054 -89.595 h -54.284 v -34.797 -126.872 h -97.605 v 126.964 34.705 h -54.284 L -206.015,0 Z"
             style="fill:#ffffff;fill-opacity:1;fill-rule:nonzero;stroke:none"
             id="path60" /></g><g
           id="g62"
           transform="translate(694.0255,201.9871)"><path
             d="m 0,0 -0.158,-102.649 h 54.284 v -34.705 -22.173 h 97.605 v 22.081 34.797 h 54.284 V -13.054 0 Z"
             style="fill:#ffffff;fill-opacity:1;fill-rule:nonzero;stroke:none"
             id="path64" /></g></g></g></g></svg>
