<svg width="2146" height="256" viewBox="0 0 2146 256" fill="none" xmlns="http://www.w3.org/2000/svg">
    <path d="M69.7266 35.1934L69.8291 63.2891H6.66504C6.66504 56.7266 6.59668 52.0439 6.45996 49.2412L6.35742 35.3984L69.7266 35.1934ZM5.33203 35.3984L6.35742 34.373V35.3984H5.33203ZM70.1367 164.495L70.2393 165.418L70.3418 180.799C70.3418 183.602 70.2051 186.951 69.9316 190.848C69.6582 194.744 69.4189 196.761 69.2139 196.897L67.3682 197.103H30.0439L25.7373 197.513C15.0732 197.513 8.5791 197.376 6.25488 197.103V196.385L6.15234 194.437V189.822C6.15234 176.355 6.35742 165.179 6.76758 156.292L7.89551 77.3369V74.2607L15.8936 74.1582L17.6367 74.2607H20.6104L23.1738 74.3633L24.5068 74.2607H31.8896L33.4277 74.1582L68.3936 74.5684C68.667 74.5 68.8721 74.4658 69.0088 74.4658C69.1455 74.4658 69.2139 74.6709 69.2139 75.0811L69.3164 84.8223C69.3848 91.3164 69.5215 100.032 69.7266 110.97C69.9316 121.839 70.0342 129.529 70.0342 134.041L69.9316 146.858V152.293L70.2393 157.728V160.906C70.2393 160.975 70.2051 161.111 70.1367 161.316V164.495ZM110.742 74.3633L138.223 74.2607C138.564 75.6963 139.18 77.9521 140.068 81.0283C140.957 84.1045 141.812 87.1807 142.632 90.2568L144.58 97.9473C147.314 91.043 148.989 87.2148 149.604 86.4629L151.245 84.4121C158.149 74.7051 168.745 69.8516 183.032 69.8516C189.8 69.8516 196.226 71.9023 202.31 76.0039C208.462 80.0371 213.247 85.335 216.665 91.8975C220.083 98.3916 221.792 105.262 221.792 112.508C221.792 113.328 221.689 113.978 221.484 114.456V177.518L221.587 197.103H161.602L161.396 145.833L161.807 135.374C161.807 124.915 159.038 119.686 153.501 119.686C147.554 119.686 144.58 124.642 144.58 134.554C144.58 136.741 144.614 138.245 144.683 139.065V140.604L144.785 142.347V197L114.229 197.103H83.5693L83.4668 135.579V74.2607L110.742 74.3633ZM297.773 35.1934L297.876 63.2891H234.712C234.712 56.7266 234.644 52.0439 234.507 49.2412L234.404 35.3984L297.773 35.1934ZM233.379 35.3984L234.404 34.373V35.3984H233.379ZM298.184 164.495L298.286 165.418L298.389 180.799C298.389 183.602 298.252 186.951 297.979 190.848C297.705 194.744 297.466 196.761 297.261 196.897L295.415 197.103H258.091L253.784 197.513C243.12 197.513 236.626 197.376 234.302 197.103V196.385L234.199 194.437V189.822C234.199 176.355 234.404 165.179 234.814 156.292L235.942 77.3369V74.2607L243.94 74.1582L245.684 74.2607H248.657L251.221 74.3633L252.554 74.2607H259.937L261.475 74.1582L296.44 74.5684C296.714 74.5 296.919 74.4658 297.056 74.4658C297.192 74.4658 297.261 74.6709 297.261 75.0811L297.363 84.8223C297.432 91.3164 297.568 100.032 297.773 110.97C297.979 121.839 298.081 129.529 298.081 134.041L297.979 146.858V152.293L298.286 157.728V160.906C298.286 160.975 298.252 161.111 298.184 161.316V164.495ZM387.29 145.936L387.188 147.474C387.188 149.866 387.256 151.644 387.393 152.806C387.598 153.899 388.315 155.232 389.546 156.805C390.776 158.309 394.775 159.061 401.543 159.061L404.312 159.163C405.337 159.163 406.26 159.061 407.08 158.855L407.183 197.103H351.094L347.607 197.308H346.479C343.95 197.308 341.182 196.487 338.174 194.847C335.166 193.206 332.91 191.771 331.406 190.54C329.971 189.241 328.74 187.601 327.715 185.618C325.801 181.927 324.639 178.304 324.229 174.749C323.887 171.126 323.716 166.648 323.716 161.316V104.51H311.616L311.514 90.1543V75.4912H323.306V41.5508H354.99L386.675 41.4482L386.777 75.2861H403.901L404.004 89.9492V104.51H387.29V145.936ZM482.959 35.1934L483.062 63.2891H419.897C419.897 56.7266 419.829 52.0439 419.692 49.2412L419.59 35.3984L482.959 35.1934ZM418.564 35.3984L419.59 34.373V35.3984H418.564ZM483.369 164.495L483.472 165.418L483.574 180.799C483.574 183.602 483.438 186.951 483.164 190.848C482.891 194.744 482.651 196.761 482.446 196.897L480.601 197.103H443.276L438.97 197.513C428.306 197.513 421.812 197.376 419.487 197.103V196.385L419.385 194.437V189.822C419.385 176.355 419.59 165.179 420 156.292L421.128 77.3369V74.2607L429.126 74.1582L430.869 74.2607H433.843L436.406 74.3633L437.739 74.2607H445.122L446.66 74.1582L481.626 74.5684C481.899 74.5 482.104 74.4658 482.241 74.4658C482.378 74.4658 482.446 74.6709 482.446 75.0811L482.549 84.8223C482.617 91.3164 482.754 100.032 482.959 110.97C483.164 121.839 483.267 129.529 483.267 134.041L483.164 146.858V152.293L483.472 157.728V160.906C483.472 160.975 483.438 161.111 483.369 161.316V164.495ZM549.404 128.914L550.43 129.017H552.891C555.215 129.017 557.026 128.846 558.325 128.504L563.862 127.786C573.296 127.103 578.97 124.573 580.884 120.198C581.841 118.011 582.319 115.242 582.319 111.893C581.909 111.209 581.704 109.91 581.704 107.996C581.704 106.082 580.713 104.065 578.73 101.946C576.816 99.8271 574.526 98.7676 571.86 98.7676H571.348C564.785 98.7676 561.504 104.339 561.504 115.481C561.162 116.028 560.581 116.233 559.761 116.097C559.009 115.96 557.129 115.892 554.121 115.892H501.211C501.553 111.175 502.783 106.082 504.902 100.613C508.936 90.0859 516.729 82.5322 528.281 77.9521C539.902 73.3037 551.421 70.7744 562.837 70.3643L568.989 70.0566L572.271 69.749C572.681 69.749 573.091 69.8516 573.501 70.0566H574.834L579.448 69.8516C580.405 69.8516 582.559 70.0908 585.908 70.5693L588.882 70.9795C589.36 71.0479 590.112 71.082 591.138 71.082C592.163 71.082 594.316 71.3213 597.598 71.7998C600.879 72.21 604.98 73.3721 609.902 75.2861C626.582 81.8486 636.699 94.4268 640.254 113.021C641.758 120.882 642.51 129.598 642.51 139.168C642.988 140.74 643.228 142.176 643.228 143.475L642.715 150.55V162.444C642.783 162.581 642.817 163.162 642.817 164.188L642.612 171.16V172.083C642.817 172.425 642.92 172.903 642.92 173.519L642.817 174.441V176.595C642.817 183.089 643.809 189.241 645.791 195.052L646.816 197.308H600.469L596.777 197.205C594.043 197.205 591.958 197.239 590.522 197.308C588.335 193.206 586.25 187.601 584.268 180.491C583.379 182.337 581.841 184.456 579.653 186.849C577.534 189.173 575.962 190.335 574.937 190.335C564.819 195.257 557.129 198.06 551.865 198.743C544.072 200.042 539.868 200.691 539.253 200.691C538.706 200.691 538.433 200.691 538.433 200.691C522.095 200.691 509.756 195.018 501.416 183.67C497.246 177.859 495.161 171.126 495.161 163.47C495.161 146.858 502.886 136.673 518.335 132.913C522.3 131.956 529.956 130.965 541.304 129.939L544.688 129.632L549.404 128.914ZM583.037 152.703L583.14 149.422C583.14 146.004 582.866 142.723 582.319 139.578C580.815 140.398 578.628 141.321 575.757 142.347C572.886 143.372 570.596 144.261 568.887 145.013C567.178 145.696 565.605 146.961 564.17 148.807C562.803 150.584 562.119 153.045 562.119 156.189C562.119 159.334 563.11 162.205 565.093 164.803C567.144 167.4 569.365 168.699 571.758 168.699C576.885 168.699 580.542 166.854 582.729 163.162L582.935 162.137L583.037 155.779V152.703ZM659.531 36.0137L685.576 35.9111C693.506 35.9111 705.811 35.9795 722.49 36.1162V197.103H659.736L659.531 36.0137ZM737.153 115.276C738.794 99.6904 741.528 87.9668 745.356 80.1055C752.671 64.9297 763.574 54.1631 778.066 47.8057C790.986 42.1318 805.034 39.2949 820.21 39.2949C845.64 39.2949 864.199 46.2676 875.889 60.2129C882.93 68.4844 886.997 78.7725 888.091 91.0771L889.014 100.716C887.852 101.81 880.503 102.356 866.968 102.356L850.664 102.151H849.331L840.41 101.946L837.949 102.049H835.898C833.984 102.049 832.515 99.2461 831.489 93.6406C830.532 88.0352 829.028 84.3437 826.978 82.5664C824.995 80.7207 822.671 79.7979 820.005 79.7979C817.339 79.7979 814.98 80.2764 812.93 81.2334C810.947 82.1904 809.307 83.3525 808.008 84.7197C806.709 86.0186 805.615 87.8984 804.727 90.3594C803.086 94.5977 802.095 99.1094 801.753 103.895C801.411 108.611 801.24 113.909 801.24 119.788V122.249L800.83 132.605C800.83 151.473 806.162 161.111 816.826 161.521C819.561 161.521 821.475 161.043 822.568 160.086C825.508 157.488 828.071 152.259 830.259 144.397C830.737 142.757 831.318 141.424 832.002 140.398H835.898L840.615 140.501H857.227L862.251 140.398L871.992 140.501H877.939L883.989 140.604H888.091C888.911 140.672 889.492 141.39 889.834 142.757L889.526 146.141C888.911 154.207 887.031 161.521 883.887 168.084C878.076 180.115 868.916 189.07 856.406 194.949C843.965 200.76 830.293 203.665 815.391 203.665C789.346 203.665 769.795 195.975 756.738 180.594C743.682 165.213 737.153 143.44 737.153 115.276ZM949.512 128.914L950.537 129.017H952.998C955.322 129.017 957.134 128.846 958.433 128.504L963.97 127.786C973.403 127.103 979.077 124.573 980.991 120.198C981.948 118.011 982.427 115.242 982.427 111.893C982.017 111.209 981.812 109.91 981.812 107.996C981.812 106.082 980.82 104.065 978.838 101.946C976.924 99.8271 974.634 98.7676 971.968 98.7676H971.455C964.893 98.7676 961.611 104.339 961.611 115.481C961.27 116.028 960.688 116.233 959.868 116.097C959.116 115.96 957.236 115.892 954.229 115.892H901.318C901.66 111.175 902.891 106.082 905.01 100.613C909.043 90.0859 916.836 82.5322 928.389 77.9521C940.01 73.3037 951.528 70.7744 962.944 70.3643L969.097 70.0566L972.378 69.749C972.788 69.749 973.198 69.8516 973.608 70.0566H974.941L979.556 69.8516C980.513 69.8516 982.666 70.0908 986.016 70.5693L988.989 70.9795C989.468 71.0479 990.22 71.082 991.245 71.082C992.271 71.082 994.424 71.3213 997.705 71.7998C1000.99 72.21 1005.09 73.3721 1010.01 75.2861C1026.69 81.8486 1036.81 94.4268 1040.36 113.021C1041.87 120.882 1042.62 129.598 1042.62 139.168C1043.1 140.74 1043.33 142.176 1043.33 143.475L1042.82 150.55V162.444C1042.89 162.581 1042.92 163.162 1042.92 164.188L1042.72 171.16V172.083C1042.92 172.425 1043.03 172.903 1043.03 173.519L1042.92 174.441V176.595C1042.92 183.089 1043.92 189.241 1045.9 195.052L1046.92 197.308H1000.58L996.885 197.205C994.15 197.205 992.065 197.239 990.63 197.308C988.442 193.206 986.357 187.601 984.375 180.491C983.486 182.337 981.948 184.456 979.761 186.849C977.642 189.173 976.069 190.335 975.044 190.335C964.927 195.257 957.236 198.06 951.973 198.743C944.18 200.042 939.976 200.691 939.36 200.691C938.813 200.691 938.54 200.691 938.54 200.691C922.202 200.691 909.863 195.018 901.523 183.67C897.354 177.859 895.269 171.126 895.269 163.47C895.269 146.858 902.993 136.673 918.442 132.913C922.407 131.956 930.063 130.965 941.411 129.939L944.795 129.632L949.512 128.914ZM983.145 152.703L983.247 149.422C983.247 146.004 982.974 142.723 982.427 139.578C980.923 140.398 978.735 141.321 975.864 142.347C972.993 143.372 970.703 144.261 968.994 145.013C967.285 145.696 965.713 146.961 964.277 148.807C962.91 150.584 962.227 153.045 962.227 156.189C962.227 159.334 963.218 162.205 965.2 164.803C967.251 167.4 969.473 168.699 971.865 168.699C976.992 168.699 980.649 166.854 982.837 163.162L983.042 162.137L983.145 155.779V152.703ZM1056.77 74.3633L1083.22 74.2607H1109.99C1111.28 76.9268 1112.45 79.1826 1113.47 81.0283L1117.37 88.2061C1124.61 81.5752 1131.28 76.8926 1137.36 74.1582C1143.52 71.3555 1150.21 69.9541 1157.46 69.9541C1164.71 69.9541 1171.2 71.2871 1176.94 73.9531C1187.06 78.6699 1194.55 86.668 1199.4 97.9473C1204.32 109.227 1206.78 121.258 1206.78 134.041C1206.78 135.682 1206.65 137.186 1206.37 138.553C1205.28 150.447 1203.19 160.325 1200.12 168.187C1197.11 175.979 1191.78 183.396 1184.12 190.438V190.335C1177.29 196.214 1170.79 199.153 1164.64 199.153C1162.86 199.974 1161.05 200.384 1159.2 200.384C1157.43 200.384 1154.9 200.145 1151.62 199.666C1148.4 199.256 1146.28 198.777 1145.26 198.23C1135.76 196.18 1128.07 192.146 1122.19 186.131L1118.29 186.233C1118.91 190.13 1119.21 193.479 1119.21 196.282L1119.11 198.128V229.505L1087.94 229.607H1056.87L1056.77 151.985V74.3633ZM1142.59 145.423L1143.11 138.963C1143.04 138.895 1143 138.758 1143 138.553C1143 138.348 1143.04 138.177 1143.11 138.04V136.297C1143.11 132.947 1142.97 130.179 1142.7 127.991L1142.08 123.685C1141.94 123.001 1141.57 120.916 1140.95 117.43C1139.31 108.611 1135.86 104.202 1130.6 104.202C1122.12 104.202 1117.88 115.345 1117.88 137.63C1117.88 149.866 1119.76 158.787 1123.52 164.393C1125.3 166.99 1127.49 168.597 1130.08 169.212C1137.19 168.597 1141.36 160.667 1142.59 145.423ZM1270.25 128.914L1271.28 129.017H1273.74C1276.06 129.017 1277.88 128.846 1279.17 128.504L1284.71 127.786C1294.15 127.103 1299.82 124.573 1301.73 120.198C1302.69 118.011 1303.17 115.242 1303.17 111.893C1302.76 111.209 1302.55 109.91 1302.55 107.996C1302.55 106.082 1301.56 104.065 1299.58 101.946C1297.67 99.8271 1295.38 98.7676 1292.71 98.7676H1292.2C1285.63 98.7676 1282.35 104.339 1282.35 115.481C1282.01 116.028 1281.43 116.233 1280.61 116.097C1279.86 115.96 1277.98 115.892 1274.97 115.892H1222.06C1222.4 111.175 1223.63 106.082 1225.75 100.613C1229.79 90.0859 1237.58 82.5322 1249.13 77.9521C1260.75 73.3037 1272.27 70.7744 1283.69 70.3643L1289.84 70.0566L1293.12 69.749C1293.53 69.749 1293.94 69.8516 1294.35 70.0566H1295.68L1300.3 69.8516C1301.25 69.8516 1303.41 70.0908 1306.76 70.5693L1309.73 70.9795C1310.21 71.0479 1310.96 71.082 1311.99 71.082C1313.01 71.082 1315.17 71.3213 1318.45 71.7998C1321.73 72.21 1325.83 73.3721 1330.75 75.2861C1347.43 81.8486 1357.55 94.4268 1361.1 113.021C1362.61 120.882 1363.36 129.598 1363.36 139.168C1363.84 140.74 1364.08 142.176 1364.08 143.475L1363.56 150.55V162.444C1363.63 162.581 1363.67 163.162 1363.67 164.188L1363.46 171.16V172.083C1363.67 172.425 1363.77 172.903 1363.77 173.519L1363.67 174.441V176.595C1363.67 183.089 1364.66 189.241 1366.64 195.052L1367.67 197.308H1321.32L1317.63 197.205C1314.89 197.205 1312.81 197.239 1311.37 197.308C1309.18 193.206 1307.1 187.601 1305.12 180.491C1304.23 182.337 1302.69 184.456 1300.5 186.849C1298.38 189.173 1296.81 190.335 1295.79 190.335C1285.67 195.257 1277.98 198.06 1272.71 198.743C1264.92 200.042 1260.72 200.691 1260.1 200.691C1259.56 200.691 1259.28 200.691 1259.28 200.691C1242.94 200.691 1230.61 195.018 1222.27 183.67C1218.1 177.859 1216.01 171.126 1216.01 163.47C1216.01 146.858 1223.74 136.673 1239.18 132.913C1243.15 131.956 1250.81 130.965 1262.15 129.939L1265.54 129.632L1270.25 128.914ZM1303.89 152.703L1303.99 149.422C1303.99 146.004 1303.72 142.723 1303.17 139.578C1301.67 140.398 1299.48 141.321 1296.61 142.347C1293.74 143.372 1291.45 144.261 1289.74 145.013C1288.03 145.696 1286.46 146.961 1285.02 148.807C1283.65 150.584 1282.97 153.045 1282.97 156.189C1282.97 159.334 1283.96 162.205 1285.94 164.803C1287.99 167.4 1290.21 168.699 1292.61 168.699C1297.73 168.699 1301.39 166.854 1303.58 163.162L1303.78 162.137L1303.89 155.779V152.703ZM1454.62 200.179L1446.42 200.691C1442.25 200.691 1438.14 200.213 1434.11 199.256C1431.38 199.256 1427.69 198.538 1423.04 197.103C1407.45 193.411 1395.83 187.02 1388.17 177.928L1386.33 175.774C1380.38 168.118 1376.52 157.83 1374.74 144.91L1374.43 142.757C1374.16 140.569 1374.02 137.972 1374.02 134.964C1374.02 131.888 1374.6 127.752 1375.77 122.557C1380.07 103.348 1389.13 90.0859 1402.94 82.7715L1416.78 75.3887C1427.04 71.6973 1439.82 69.8516 1455.13 69.8516C1460.94 69.8516 1466.31 70.6035 1471.23 72.1074L1473.28 72.7227C1473.21 72.7227 1473.18 72.6885 1473.18 72.6201H1473.38C1496.56 78.7725 1511.97 88.958 1519.63 103.177L1519.83 103.895C1523.25 110.799 1525.54 118.523 1526.7 127.068L1524.35 126.248H1460.16L1459.64 122.454C1458.55 114.593 1456.7 109.363 1454.11 106.766L1452.06 105.535C1446.04 105.945 1442.66 114.148 1441.9 130.145C1441.84 132.332 1441.73 133.631 1441.6 134.041L1441.7 137.322L1442.01 143.27C1442.01 143.748 1442.04 144.261 1442.11 144.808L1443.13 145.833H1442.01C1442.35 150.96 1443.41 154.891 1445.19 157.625C1447.03 160.359 1448.88 161.727 1450.72 161.727C1454.21 161.727 1456.6 159.607 1457.9 155.369C1459.2 151.131 1459.85 147.269 1459.85 143.782C1465.11 143.509 1473.04 143.372 1483.64 143.372H1487.53L1497.38 143.475H1507.22L1527.01 143.577C1524.89 165.521 1514.54 181.038 1495.94 190.13C1494.58 190.608 1492.7 191.395 1490.3 192.488L1486.41 194.334C1475.54 198.504 1465.59 200.589 1456.57 200.589C1455.61 200.589 1454.96 200.452 1454.62 200.179ZM1599.61 35.1934L1599.71 63.2891H1536.55C1536.55 56.7266 1536.48 52.0439 1536.34 49.2412L1536.24 35.3984L1599.61 35.1934ZM1535.21 35.3984L1536.24 34.373V35.3984H1535.21ZM1600.02 164.495L1600.12 165.418L1600.22 180.799C1600.22 183.602 1600.09 186.951 1599.81 190.848C1599.54 194.744 1599.3 196.761 1599.1 196.897L1597.25 197.103H1559.93L1555.62 197.513C1544.96 197.513 1538.46 197.376 1536.14 197.103V196.385L1536.04 194.437V189.822C1536.04 176.355 1536.24 165.179 1536.65 156.292L1537.78 77.3369V74.2607L1545.78 74.1582L1547.52 74.2607H1550.49L1553.06 74.3633L1554.39 74.2607H1561.77L1563.31 74.1582L1598.28 74.5684C1598.55 74.5 1598.75 74.4658 1598.89 74.4658C1599.03 74.4658 1599.1 74.6709 1599.1 75.0811L1599.2 84.8223C1599.27 91.3164 1599.4 100.032 1599.61 110.97C1599.81 121.839 1599.92 129.529 1599.92 134.041L1599.81 146.858V152.293L1600.12 157.728V160.906C1600.12 160.975 1600.09 161.111 1600.02 161.316V164.495ZM1689.13 145.936L1689.02 147.474C1689.02 149.866 1689.09 151.644 1689.23 152.806C1689.43 153.899 1690.15 155.232 1691.38 156.805C1692.61 158.309 1696.61 159.061 1703.38 159.061L1706.15 159.163C1707.17 159.163 1708.1 159.061 1708.92 158.855L1709.02 197.103H1652.93L1649.44 197.308H1648.32C1645.79 197.308 1643.02 196.487 1640.01 194.847C1637 193.206 1634.75 191.771 1633.24 190.54C1631.81 189.241 1630.58 187.601 1629.55 185.618C1627.64 181.927 1626.47 178.304 1626.06 174.749C1625.72 171.126 1625.55 166.648 1625.55 161.316V104.51H1613.45L1613.35 90.1543V75.4912H1625.14V41.5508H1656.83L1688.51 41.4482L1688.61 75.2861H1705.74L1705.84 89.9492V104.51H1689.13V145.936ZM1739.47 211.253C1745.83 209.065 1749.01 202.879 1749.01 192.693C1749.01 188.865 1747.71 182.815 1745.11 174.544L1743.47 169.417C1735.47 143.782 1725.46 112.132 1713.43 74.4658H1744.7L1775.57 74.3633L1780.18 100.921C1780.52 103.86 1781.07 108.03 1781.82 113.431C1782.57 118.831 1783.12 122.898 1783.46 125.633L1793.41 74.3633H1854.01V74.1582L1856.06 74.3633L1855.55 76.4141H1855.34L1828.27 151.473C1825.47 158.514 1823.38 164.427 1822.02 169.212C1820.65 173.929 1819.11 178.372 1817.4 182.542C1815.69 186.712 1812.69 194.881 1808.38 207.049C1804.14 219.285 1800.07 228.89 1796.18 235.862C1790.02 246.321 1780.21 251.995 1766.75 252.884L1757.11 252.986L1748.8 253.396C1747.23 253.396 1745.9 253.294 1744.8 253.089C1744.33 253.226 1743.61 253.294 1742.65 253.294L1736.4 252.986L1732.4 253.294C1732.06 253.294 1731.2 253.226 1729.83 253.089C1726.96 253.089 1724.09 253.089 1721.22 253.089L1719.27 247.859C1719.14 247.449 1719.07 246.902 1719.07 246.219C1719.07 245.604 1719.1 245.159 1719.17 244.886V244.168L1719.27 243.143V231.453C1719.27 223.387 1719.24 217.405 1719.17 213.509C1720.13 213.372 1721.15 213.304 1722.25 213.304C1723.41 213.304 1724.33 213.406 1725.01 213.611C1725.97 213.406 1727.24 213.304 1728.81 213.304H1729.63C1730.18 212.962 1731.41 212.654 1733.32 212.381C1735.23 212.107 1736.7 211.834 1737.73 211.561C1738.75 211.287 1739.34 211.15 1739.47 211.15V211.253ZM1898 40.2178L1948.86 39.3975C1953.51 39.3975 1956.58 40.457 1958.09 42.5762C1959.59 44.627 1960.34 47.1904 1960.34 50.2666C1960.34 65.0322 1960.24 73.1328 1960.03 74.5684C1956.07 74.7051 1951.87 74.7734 1947.42 74.7734C1942.98 74.7734 1935.63 74.3633 1925.38 73.543C1924.97 102.117 1924.76 126.521 1924.76 146.756C1924.76 166.99 1924.93 182.815 1925.27 194.231L1955.01 193.821H1958.8C1960.1 195.12 1960.75 200.008 1960.75 208.484L1960.55 218.738V221.302L1960.75 224.275C1960.75 228.445 1959.97 230.633 1958.39 230.838L1880.57 231.761L1879.23 230.325C1877.52 228.548 1876.67 225.848 1876.67 222.225L1876.88 216.38V208.484L1876.98 205.716V191.976C1876.98 124.778 1877.76 74.3975 1879.34 40.833C1879.34 40.2861 1880.36 40.0127 1882.41 40.0127L1894.1 40.2178H1898ZM1960.03 74.6709L1960.24 74.5684C1960.17 74.6367 1960.1 74.6709 1960.03 74.6709ZM2127.48 150.652L2126.46 218.943V227.044C2126.46 228.479 2126.08 229.607 2125.33 230.428C2120.68 230.701 2115.65 230.838 2110.25 230.838H2106.87L2075.8 230.53C2058.51 230.325 2049.11 230.223 2047.6 230.223C2047.06 230.086 2046.71 229.334 2046.58 227.967V227.659C2046.24 218.089 2046.06 210.569 2046.06 205.101C2046.06 199.632 2046.24 196.556 2046.58 195.872C2046.99 195.12 2047.74 194.744 2048.83 194.744H2052.11C2065.65 194.744 2075.39 194.642 2081.34 194.437V182.645C2081.34 158.787 2080.86 123.479 2079.9 76.7217H2064.52L2047.5 77.0293C2046.27 75.7988 2045.52 74.9443 2045.24 74.4658V54.0605L2045.35 48.626V45.3447L2045.24 44.0117C2045.24 41.209 2045.65 39.3291 2046.47 38.3721H2054.88L2074.37 38.5771L2088.93 38.4746H2096.1L2103.59 38.3721L2128.92 39.3975V46.6777L2128.81 51.7021V69.6465C2128.81 80.1055 2128.51 101.092 2127.89 132.605L2127.48 150.652ZM2128.92 39.3975V38.3721L2129.94 39.3975H2128.92Z"
          fill="white"/>
</svg>
